<?xml version="1.0" encoding="utf-8"?>
<!-- Generator: Adobe Illustrator 27.5.0, SVG Export Plug-In . SVG Version: 6.00 Build 0)  -->
<svg version="1.1" id="Layer_1" xmlns="http://www.w3.org/2000/svg" xmlns:xlink="http://www.w3.org/1999/xlink" x="0px" y="0px"
	 viewBox="0 0 4000 4000" style="enable-background:new 0 0 4000 4000;" xml:space="preserve">
<rect x="-0.5" y="-0.5" style="fill:none;" width="4000" height="4000"/>
<g id="_1955900068976">
	
		<linearGradient id="SVGID_1_" gradientUnits="userSpaceOnUse" x1="146466.2813" y1="-44274.2188" x2="104264.0625" y2="-126635.0391" gradientTransform="matrix(0.0188 0 0 -0.0188 0.9591 76.2583)">
		<stop  offset="0" style="stop-color:#FFCF4B"/>
		<stop  offset="1" style="stop-color:#A410D1"/>
	</linearGradient>
	<path style="fill-rule:evenodd;clip-rule:evenodd;fill:url(#SVGID_1_);" d="M1799.931,2950.97
		c91.182-374.176,466.375-915.541,466.375-915.541s685.458-838.418,981.69-1221.792c-299.321,0-652.781-5.845-824.166,216.416
		c-161.61,209.586-260.778,338.194-422.388,547.783c0,0-312.165,369.77-250.176,671.203
		c68.413,218.489,89.727,454.409,48.661,701.929L1799.931,2950.97z"/>
	<path style="fill-rule:evenodd;clip-rule:evenodd;fill:#102770;" d="M2266.31,2035.43c0,0-375.196,541.363-466.376,915.541
		c-4.356,26.264-9.415,52.658-15.193,79.175c-11.454,52.532-25.73,105.553-42.98,159.002c174.199,0,348.398,0,522.598,0
		C2379.446,3012.372,2441.566,2445.175,2266.31,2035.43z"/>
	<defs>
		<filter id="Adobe_OpacityMaskFilter" filterUnits="userSpaceOnUse" x="1741.759" y="2400.706" width="350.479" height="788.441">
			<feColorMatrix  type="matrix" values="1 0 0 0 0  0 1 0 0 0  0 0 1 0 0  0 0 0 1 0"/>
		</filter>
	</defs>
	<mask maskUnits="userSpaceOnUse" x="1741.759" y="2400.706" width="350.479" height="788.441" id="id56_2_">
		<defs>
			
				<filter id="Adobe_OpacityMaskFilter_00000140702129380946095550000016877216272349120189_" filterUnits="userSpaceOnUse" x="1741.759" y="2400.708" width="350.484" height="788.441">
				<feFlood  style="flood-color:white;flood-opacity:1" result="back"/>
				<feBlend  in="SourceGraphic" in2="back" mode="normal"/>
			</filter>
		</defs>
		
			<mask maskUnits="userSpaceOnUse" x="1741.759" y="2400.708" width="350.484" height="788.441" id="id56_2_" style="filter:url(#Adobe_OpacityMaskFilter);">
			<g style="filter:url(#Adobe_OpacityMaskFilter_00000140702129380946095550000016877216272349120189_);">
				<defs>
					
						<filter id="Adobe_OpacityMaskFilter_00000152238142318445024840000014452433137837643655_" filterUnits="userSpaceOnUse" x="1741.759" y="2400.708" width="350.484" height="788.441">
						<feFlood  style="flood-color:white;flood-opacity:1" result="back"/>
						<feBlend  in="SourceGraphic" in2="back" mode="normal"/>
					</filter>
				</defs>
				<mask maskUnits="userSpaceOnUse" x="1741.759" y="2400.708" width="350.484" height="788.441" id="id56_2_">
					<g style="filter:url(#Adobe_OpacityMaskFilter_00000152238142318445024840000014452433137837643655_);">
					</g>
				</mask>
				
					<linearGradient id="SVGID_00000049937123421875797990000004496370221369916303_" gradientUnits="userSpaceOnUse" x1="120603.9453" y1="-169322.4688" x2="-2902.6208" y2="-5991.4409" gradientTransform="matrix(0.0188 0 0 -0.0188 0.9591 76.2583)">
					<stop  offset="0" style="stop-color:#FFFFFF"/>
					<stop  offset="1" style="stop-color:#000000"/>
				</linearGradient>
				
					<rect x="1741.759" y="2400.708" style="mask:url(#id56_2_);fill-rule:evenodd;clip-rule:evenodd;fill:url(#SVGID_00000049937123421875797990000004496370221369916303_);" width="350.484" height="788.441"/>
			</g>
		</mask>
		
			<linearGradient id="SVGID_00000066504977086909429360000001257732108306960270_" gradientUnits="userSpaceOnUse" x1="120603.9453" y1="-169322.4688" x2="-2902.6208" y2="-5991.4409" gradientTransform="matrix(0.0188 0 0 -0.0188 0.9591 76.2583)">
			<stop  offset="0" style="stop-color:#FFFFFF"/>
			<stop  offset="1" style="stop-color:#FFFFFF"/>
		</linearGradient>
		
			<rect x="1741.759" y="2400.708" style="fill-rule:evenodd;clip-rule:evenodd;fill:url(#SVGID_00000066504977086909429360000001257732108306960270_);" width="350.484" height="788.441"/>
	</mask>
	<path style="fill-rule:evenodd;clip-rule:evenodd;fill:#102770;" d="M2040.062,2400.708
		c-97.416,173.242-198.448,379.209-240.131,550.262c-4.356,26.264-9.415,52.658-15.193,79.175
		c-11.454,52.533-25.73,105.553-42.979,159.003h344.139c17.271-297.004-1.632-558.376-45.836-788.441V2400.708z"/>
	
		<linearGradient id="SVGID_00000135664070113908566070000003805008170156370340_" gradientUnits="userSpaceOnUse" x1="92003.9531" y1="-120822.9297" x2="56212.4961" y2="-4373.9619" gradientTransform="matrix(0.0188 0 0 -0.0188 0.9591 76.2583)">
		<stop  offset="0" style="stop-color:#102770"/>
		<stop  offset="1" style="stop-color:#C906B9"/>
	</linearGradient>
	<path style="fill-rule:evenodd;clip-rule:evenodd;fill:url(#SVGID_00000135664070113908566070000003805008170156370340_);" d="
		M1751.271,2249.041c-61.989-301.431,250.176-671.203,250.176-671.203c-117.347-152.185-164.042-218.796-284.295-368.693
		c-267.509-333.452-422.659-404.984-965.477-395.507c230.943,296.664,688.579,807.206,865.377,1124.715
		c55.03,98.826,100.384,202.625,134.219,310.687V2249.041z"/>
	<defs>
		
			<filter id="Adobe_OpacityMaskFilter_00000092448938844075049320000000733080481764432009_" filterUnits="userSpaceOnUse" x="751.673" y="813.64" width="1095.292" height="1435.401">
			<feColorMatrix  type="matrix" values="1 0 0 0 0  0 1 0 0 0  0 0 1 0 0  0 0 0 1 0"/>
		</filter>
	</defs>
	<mask maskUnits="userSpaceOnUse" x="751.673" y="813.64" width="1095.292" height="1435.401" id="id58_2_">
		<defs>
			
				<filter id="Adobe_OpacityMaskFilter_00000015355165275450093610000010208401749184322970_" filterUnits="userSpaceOnUse" x="751.674" y="813.639" width="1095.291" height="1435.402">
				<feFlood  style="flood-color:white;flood-opacity:1" result="back"/>
				<feBlend  in="SourceGraphic" in2="back" mode="normal"/>
			</filter>
		</defs>
		
			<mask maskUnits="userSpaceOnUse" x="751.674" y="813.639" width="1095.291" height="1435.402" id="id58_2_" style="filter:url(#Adobe_OpacityMaskFilter_00000092448938844075049320000000733080481764432009_);">
			<g style="filter:url(#Adobe_OpacityMaskFilter_00000015355165275450093610000010208401749184322970_);">
				<defs>
					
						<filter id="Adobe_OpacityMaskFilter_00000125590172418727353560000010766949094883314853_" filterUnits="userSpaceOnUse" x="751.674" y="813.639" width="1095.291" height="1435.402">
						<feFlood  style="flood-color:white;flood-opacity:1" result="back"/>
						<feBlend  in="SourceGraphic" in2="back" mode="normal"/>
					</filter>
				</defs>
				<mask maskUnits="userSpaceOnUse" x="751.674" y="813.639" width="1095.291" height="1435.402" id="id58_2_">
					<g style="filter:url(#Adobe_OpacityMaskFilter_00000125590172418727353560000010766949094883314853_);">
					</g>
				</mask>
				
					<linearGradient id="SVGID_00000176758892863965872500000017621956650124015546_" gradientUnits="userSpaceOnUse" x1="132035.875" y1="-160678" x2="8529.2686" y2="2653.0779" gradientTransform="matrix(0.0188 0 0 -0.0188 0.9591 76.2583)">
					<stop  offset="0" style="stop-color:#FFFFFF"/>
					<stop  offset="1" style="stop-color:#000000"/>
				</linearGradient>
				
					<rect x="751.674" y="813.639" style="mask:url(#id58_2_);fill-rule:evenodd;clip-rule:evenodd;fill:url(#SVGID_00000176758892863965872500000017621956650124015546_);" width="1095.291" height="1435.402"/>
			</g>
		</mask>
		
			<linearGradient id="SVGID_00000012451483596040502670000006942841367523378841_" gradientUnits="userSpaceOnUse" x1="132035.875" y1="-160678" x2="8529.2686" y2="2653.0779" gradientTransform="matrix(0.0188 0 0 -0.0188 0.9591 76.2583)">
			<stop  offset="0" style="stop-color:#FFFFFF"/>
			<stop  offset="1" style="stop-color:#FFFFFF"/>
		</linearGradient>
		
			<rect x="751.674" y="813.639" style="fill-rule:evenodd;clip-rule:evenodd;fill:url(#SVGID_00000012451483596040502670000006942841367523378841_);" width="1095.291" height="1435.402"/>
	</mask>
	<path style="fill-rule:evenodd;clip-rule:evenodd;fill:#102770;" d="M1751.271,2249.041
		c-30.086-146.305,27.969-308.705,95.694-437.113C1460.094,1019.061,751.673,813.64,751.673,813.64
		c230.943,296.664,688.578,807.206,865.379,1124.715C1672.081,2037.181,1717.435,2140.98,1751.271,2249.041L1751.271,2249.041z"/>
	<defs>
		
			<filter id="Adobe_OpacityMaskFilter_00000022557939680946505420000013669951379267917955_" filterUnits="userSpaceOnUse" x="1743.125" y="813.623" width="1504.875" height="1783.493">
			<feColorMatrix  type="matrix" values="1 0 0 0 0  0 1 0 0 0  0 0 1 0 0  0 0 0 1 0"/>
		</filter>
	</defs>
	<mask maskUnits="userSpaceOnUse" x="1743.125" y="813.623" width="1504.875" height="1783.493" id="id60_2_">
		<defs>
			
				<filter id="Adobe_OpacityMaskFilter_00000140720946680554654110000009523355781622596011_" filterUnits="userSpaceOnUse" x="1743.126" y="813.624" width="1504.874" height="1783.493">
				<feFlood  style="flood-color:white;flood-opacity:1" result="back"/>
				<feBlend  in="SourceGraphic" in2="back" mode="normal"/>
			</filter>
		</defs>
		
			<mask maskUnits="userSpaceOnUse" x="1743.126" y="813.624" width="1504.874" height="1783.493" id="id60_2_" style="filter:url(#Adobe_OpacityMaskFilter_00000022557939680946505420000013669951379267917955_);">
			<g style="filter:url(#Adobe_OpacityMaskFilter_00000140720946680554654110000009523355781622596011_);">
				<defs>
					
						<filter id="Adobe_OpacityMaskFilter_00000129898236046683811910000011544105392270543542_" filterUnits="userSpaceOnUse" x="1743.126" y="813.624" width="1504.874" height="1783.493">
						<feFlood  style="flood-color:white;flood-opacity:1" result="back"/>
						<feBlend  in="SourceGraphic" in2="back" mode="normal"/>
					</filter>
				</defs>
				<mask maskUnits="userSpaceOnUse" x="1743.126" y="813.624" width="1504.874" height="1783.493" id="id60_2_">
					<g style="filter:url(#Adobe_OpacityMaskFilter_00000129898236046683811910000011544105392270543542_);">
					</g>
				</mask>
				
					<linearGradient id="SVGID_00000031890480379062677480000001256439595793909180_" gradientUnits="userSpaceOnUse" x1="161943.4375" y1="-43205.707" x2="101702.375" y2="-132685.0781" gradientTransform="matrix(0.0188 0 0 -0.0188 0.9591 76.2583)">
					<stop  offset="0" style="stop-color:#FFFFFF"/>
					<stop  offset="1" style="stop-color:#000000"/>
				</linearGradient>
				
					<rect x="1743.126" y="813.624" style="mask:url(#id60_2_);fill-rule:evenodd;clip-rule:evenodd;fill:url(#SVGID_00000031890480379062677480000001256439595793909180_);" width="1504.874" height="1783.493"/>
			</g>
		</mask>
		
			<linearGradient id="SVGID_00000060729315993776928390000005466983240806192286_" gradientUnits="userSpaceOnUse" x1="161943.4375" y1="-43205.707" x2="101702.375" y2="-132685.0781" gradientTransform="matrix(0.0188 0 0 -0.0188 0.9591 76.2583)">
			<stop  offset="0" style="stop-color:#FFFFFF"/>
			<stop  offset="1" style="stop-color:#FFFFFF"/>
		</linearGradient>
		
			<rect x="1743.126" y="813.624" style="fill-rule:evenodd;clip-rule:evenodd;fill:url(#SVGID_00000060729315993776928390000005466983240806192286_);" width="1504.874" height="1783.493"/>
	</mask>
	<path style="fill-rule:evenodd;clip-rule:evenodd;fill:#FDE3A7;" d="M1817.23,2597.115
		C2117.187,1266.891,3248,813.637,3248,813.637c-299.321,0-652.781-5.845-824.166,216.416
		c-161.61,209.586-260.778,338.194-422.388,547.783c0,0-312.165,369.77-250.176,671.203
		c34.984,111.726,57.649,228.012,65.957,348.077H1817.23z"/>
	<defs>
		
			<filter id="Adobe_OpacityMaskFilter_00000106863492523977522420000013629995828578418311_" filterUnits="userSpaceOnUse" x="1799.934" y="2035.427" width="565.556" height="915.541">
			<feColorMatrix  type="matrix" values="1 0 0 0 0  0 1 0 0 0  0 0 1 0 0  0 0 0 1 0"/>
		</filter>
	</defs>
	<mask maskUnits="userSpaceOnUse" x="1799.934" y="2035.427" width="565.556" height="915.541" id="id62_2_">
		<defs>
			
				<filter id="Adobe_OpacityMaskFilter_00000110464375390594616140000014522692582999552416_" filterUnits="userSpaceOnUse" x="1799.931" y="2035.43" width="565.559" height="915.541">
				<feFlood  style="flood-color:white;flood-opacity:1" result="back"/>
				<feBlend  in="SourceGraphic" in2="back" mode="normal"/>
			</filter>
		</defs>
		
			<mask maskUnits="userSpaceOnUse" x="1799.931" y="2035.43" width="565.559" height="915.541" id="id62_2_" style="filter:url(#Adobe_OpacityMaskFilter_00000106863492523977522420000013629995828578418311_);">
			<g style="filter:url(#Adobe_OpacityMaskFilter_00000110464375390594616140000014522692582999552416_);">
				<defs>
					
						<filter id="Adobe_OpacityMaskFilter_00000074441762741265860840000017140118886717873311_" filterUnits="userSpaceOnUse" x="1799.931" y="2035.43" width="565.559" height="915.541">
						<feFlood  style="flood-color:white;flood-opacity:1" result="back"/>
						<feBlend  in="SourceGraphic" in2="back" mode="normal"/>
					</filter>
				</defs>
				<mask maskUnits="userSpaceOnUse" x="1799.931" y="2035.43" width="565.559" height="915.541" id="id62_2_">
					<g style="filter:url(#Adobe_OpacityMaskFilter_00000074441762741265860840000017140118886717873311_);">
					</g>
				</mask>
				
					<linearGradient id="SVGID_00000176725894436863028650000007393469148922411424_" gradientUnits="userSpaceOnUse" x1="62704.2031" y1="-152665.0625" x2="196293.0625" y2="-85618.4922" gradientTransform="matrix(0.0188 0 0 -0.0188 0.9591 76.2583)">
					<stop  offset="0" style="stop-color:#FFFFFF"/>
					<stop  offset="1" style="stop-color:#000000"/>
				</linearGradient>
				
					<rect x="1799.931" y="2035.43" style="mask:url(#id62_2_);fill-rule:evenodd;clip-rule:evenodd;fill:url(#SVGID_00000176725894436863028650000007393469148922411424_);" width="565.559" height="915.541"/>
			</g>
		</mask>
		
			<linearGradient id="SVGID_00000141417375085414415790000000385480411674303140_" gradientUnits="userSpaceOnUse" x1="62704.2031" y1="-152665.0625" x2="196293.0625" y2="-85618.4922" gradientTransform="matrix(0.0188 0 0 -0.0188 0.9591 76.2583)">
			<stop  offset="0" style="stop-color:#FFFFFF"/>
			<stop  offset="1" style="stop-color:#FFFFFF"/>
		</linearGradient>
		
			<rect x="1799.931" y="2035.43" style="fill-rule:evenodd;clip-rule:evenodd;fill:url(#SVGID_00000141417375085414415790000000385480411674303140_);" width="565.559" height="915.541"/>
	</mask>
	<path style="fill-rule:evenodd;clip-rule:evenodd;" d="M2040.062,2400.708c2.906,15.146,5.707,30.431,8.4,45.857
		c-2.692-15.424-5.499-30.715-8.405-45.861c-97.41,173.233-198.44,379.218-240.123,550.263c0,0,112.561-210.356,269.597-361.873
		c88.576-85.465,191.303-152.209,295.96-151.922c-14.597-138.206-45.93-277.244-99.181-401.746c0,0-110.572,159.546-226.245,365.279
		L2040.062,2400.708z"/>
</g>
</svg>
